<?xml version="1.0" encoding="iso-8859-1"?>
<!-- Generator: Adobe Illustrator 19.0.0, SVG Export Plug-In . SVG Version: 6.00 Build 0)  -->
<svg version="1.1" id="Layer_1" xmlns="http://www.w3.org/2000/svg" xmlns:xlink="http://www.w3.org/1999/xlink" x="0px" y="0px"
	 viewBox="0 0 290.626 290.626" style="enable-background:new 0 0 290.626 290.626;" xml:space="preserve">
<g>
	<g>
		<g>
			<path d="M274.895,281.25c9.58-7.739,15.73-19.566,15.73-32.812c0-21.68-16.439-39.572-37.5-41.911v-43.266
				c1.467,0.516,3.042,0.802,4.688,0.802c7.753,0,14.063-6.309,14.063-14.063v-32.813c0-10.27-4.908-20.086-13.125-26.25
				c-5.639-4.233-12.633-6.563-19.688-6.563h-9.298c12.889-0.042,23.36-10.539,23.36-23.436c0-12.923-10.514-23.438-23.438-23.438
				S206.25,48.014,206.25,60.938c0,12.898,10.473,23.394,23.361,23.436h-9.298c-7.055,0-14.048,2.33-19.688,6.563
				c-8.217,6.164-13.125,15.98-13.125,26.25v32.813c0,7.753,6.309,14.063,14.063,14.063c1.645,0,3.22-0.286,4.688-0.802v5.489
				h-14.063v9.375h12.375l-2.93,9.375h-80.887l4.936-23.438h14.944v-9.375H118.07l-10.898,51.769
				c-1.331-0.127-2.677-0.206-4.045-0.206c-21.675,0-39.572,16.439-41.911,37.5H42.188v-28.125c0-8.714-6-15.989-14.063-18.084
				V93.751h51.563c7.753,0,14.063-6.309,14.063-14.063V14.063C93.75,6.31,87.441,0.001,79.688,0.001H14.063
				C6.309,0.001,0,6.31,0,14.063v65.625c0,7.753,6.309,14.062,14.063,14.062h4.688v103.791c-8.063,2.095-14.063,9.37-14.063,18.084
				v65.625H0v9.375h4.688h37.5h248.438v-9.375H274.895z M14.063,84.376c-2.583-0.001-4.688-2.101-4.688-4.688V14.063
				c0-2.588,2.105-4.688,4.688-4.688h65.625c2.583,0,4.688,2.1,4.688,4.688v65.625c0,2.588-2.105,4.688-4.688,4.688H14.063z
				 M32.813,281.25h-18.75v-51.563h18.75V281.25z M32.813,220.313h-18.75v-4.688c0-5.17,4.204-9.375,9.375-9.375
				c5.17,0,9.375,4.205,9.375,9.375V220.313z M215.625,60.938c0-7.754,6.309-14.063,14.063-14.063
				c7.754,0,14.063,6.309,14.063,14.063c0,7.754-6.31,14.063-14.063,14.063S215.625,68.691,215.625,60.938z M206.25,112.501v37.5
				c0,2.587-2.105,4.688-4.688,4.688s-4.688-2.1-4.688-4.688v-32.813c0-7.336,3.506-14.348,9.375-18.75
				c4.027-3.023,9.023-4.688,14.063-4.688h18.75c5.039,0,10.036,1.664,14.063,4.688c5.869,4.402,9.375,11.414,9.375,18.75v32.813
				c0,2.587-2.105,4.688-4.688,4.688s-4.688-2.1-4.688-4.688v-37.5h-9.375v94.027c-3.253,0.361-6.384,1.125-9.375,2.184v-49.336H225
				v50.002l-14.386-19.186l3.769-12.066h5.93v-9.375h-4.688v-56.25H206.25z M225.216,225.282l13.847,18.469H216
				C217.031,236.597,220.341,230.17,225.216,225.282z M207.164,201.22l12.403,16.538c-7.106,6.689-11.906,15.783-13.041,25.992
				h-12.651L207.164,201.22z M198.703,196.876l-13.697,43.833l-58.444-43.833H198.703z M42.188,281.25v-28.125h19.027
				c1.261,11.33,7.022,21.314,15.455,28.125H42.188z M70.688,253.126h0.694c5.831,0,11.119,3.666,13.167,9.127l6.211,16.556
				C80.175,274.486,72.366,264.788,70.688,253.126z M103.123,281.25c-0.497,0-0.975-0.052-1.467-0.075l-8.334-22.214
				c-3.408-9.098-12.225-15.211-21.942-15.211h-0.694c2.289-15.872,15.944-28.125,32.439-28.125c0.708,0,1.397,0.061,2.095,0.108
				l-6.68,31.739l9.173,1.931l6.684-31.744c12.544,4.613,21.539,16.65,21.539,30.778C135.936,266.526,121.217,281.25,103.123,281.25
				z M129.582,281.249c9.58-7.739,15.73-19.566,15.73-32.812c0-18.642-12.169-34.472-28.969-40.036l1.359-6.455l68.236,51.178
				h20.587c1.261,11.33,7.022,21.314,15.455,28.125H129.582z M248.437,281.251c-16.495,0-30.15-12.253-32.437-28.125h37.125v-9.375
				h-2.344l-18.07-24.098c4.669-2.564,10.031-4.027,15.727-4.027c18.093-0.001,32.812,14.722,32.812,32.812
				C281.25,266.527,266.531,281.251,248.437,281.251z"/>
			<path d="M51.563,18.751H23.438v56.25h9.375v-18.75h18.75c10.341,0,18.75-8.409,18.75-18.75S61.903,18.751,51.563,18.751z
				 M51.563,46.876h-18.75v-18.75h18.75c5.17,0,9.375,4.205,9.375,9.375S56.733,46.876,51.563,46.876z"/>
		</g>
	</g>
</g>
<g>
</g>
<g>
</g>
<g>
</g>
<g>
</g>
<g>
</g>
<g>
</g>
<g>
</g>
<g>
</g>
<g>
</g>
<g>
</g>
<g>
</g>
<g>
</g>
<g>
</g>
<g>
</g>
<g>
</g>
</svg>
