<?xml version="1.0" encoding="iso-8859-1"?>
<!-- Generator: Adobe Illustrator 19.1.0, SVG Export Plug-In . SVG Version: 6.00 Build 0)  -->
<svg xmlns="http://www.w3.org/2000/svg" xmlns:xlink="http://www.w3.org/1999/xlink" version="1.1" id="Capa_1" x="0px" y="0px" viewBox="0 0 289.135 289.135" style="enable-background:new 0 0 289.135 289.135;" xml:space="preserve" width="512px" height="512px">
<g>
	<path d="M240.845,137.37c-1.207,0-2.414,0-4.225,0l-13.883-67.606l26.559-5.433c3.018-0.604,5.433-3.622,4.829-7.244   c-0.604-3.018-3.622-5.433-7.243-4.829l-32.596,7.244c-3.018,0.604-5.433,3.622-4.829,7.244l9.054,44.064H116.499l-4.225-13.28   h20.523c3.622,0,6.036-2.414,6.036-6.036c0-3.622-2.414-6.036-6.036-6.036H89.336l-3.622-5.433   c-1.811-3.018-5.433-3.622-8.451-1.811c-3.018,1.811-3.622,5.433-1.811,8.451l5.433,7.847c1.207,1.811,3.018,2.414,4.829,2.414   H98.39l5.433,16.298l-26.559,31.388c-7.847-4.829-17.505-7.847-27.163-7.847C22.334,136.767,0,159.101,0,186.868   s22.334,50.101,50.101,50.101c25.352,0,47.082-19.316,49.497-44.064h13.28c2.414,10.865,11.469,19.919,22.938,22.334v15.694   c0,3.622,2.414,6.036,6.036,6.036h8.451c3.622,0,6.036-2.414,6.036-6.036s-2.414-6.036-6.036-6.036h-2.414v-9.658   c13.28-3.018,23.541-14.487,23.541-28.37c0-4.829-1.207-9.054-3.018-13.28l52.515-46.479l2.414,12.072   c-19.92,6.64-34.406,25.352-34.406,47.686c0,27.767,22.334,50.101,50.101,50.101s50.101-22.334,50.101-50.101   S268.612,137.37,240.845,137.37z M123.139,165.137C123.139,165.137,122.535,165.137,123.139,165.137   c-4.829,4.829-7.847,10.262-8.451,16.298h-13.28c-1.207-10.865-6.036-20.523-13.28-28.37l22.334-25.956L123.139,165.137z    M80.282,162.119c4.829,5.433,7.847,12.072,9.054,18.712H64.588L80.282,162.119z M51.308,225.499   c-21.127,0-38.028-16.901-38.028-38.028s16.901-38.028,38.028-38.028c7.244,0,13.883,1.811,19.316,5.433l-24.749,28.974   c-1.811,1.811-1.811,4.225-0.604,6.64c1.207,2.414,3.018,3.622,5.433,3.622h38.028C86.318,211.616,70.624,225.499,51.308,225.499z    M149.698,203.165v-16.298c0-3.622-2.414-6.036-6.036-6.036c-3.622,0-6.036,2.414-6.036,6.036v16.298   c-6.64-2.414-10.865-8.451-11.469-15.694c0,0,0,0,0-0.604s0-0.604,0-1.207c0-4.829,1.811-9.054,5.433-12.072   c3.018-3.018,7.847-4.829,12.072-4.829l0,0c9.658,0,17.505,8.451,17.505,18.109C160.563,194.111,156.338,200.751,149.698,203.165z    M162.978,164.533c-4.829-4.225-11.469-7.244-18.712-7.244h-0.604c-3.622,0-6.64,0.604-9.658,1.811l-12.072-36.217h88.732   L162.978,164.533z M240.845,225.499c-21.127,0-38.028-16.901-38.028-38.028c0-16.298,10.262-30.181,24.749-35.614l7.243,36.821   c0.604,3.018,3.018,4.829,6.036,4.829c0.604,0,0.604,0,1.207,0c3.018-0.604,5.433-3.622,4.829-7.244l-7.243-36.821   c0.604,0,1.207,0,1.811,0c21.127,0,38.028,16.901,38.028,38.028S261.972,225.499,240.845,225.499z" fill="#fafafa"/>
</g>
<g>
</g>
<g>
</g>
<g>
</g>
<g>
</g>
<g>
</g>
<g>
</g>
<g>
</g>
<g>
</g>
<g>
</g>
<g>
</g>
<g>
</g>
<g>
</g>
<g>
</g>
<g>
</g>
<g>
</g>
</svg>
